<svg xmlns="http://www.w3.org/2000/svg" xmlns:xlink="http://www.w3.org/1999/xlink" width="150" zoomAndPan="magnify" viewBox="0 0 112.5 112.499997" height="150" preserveAspectRatio="xMidYMid meet" version="1.0"><defs><g/><clipPath id="0fcbd74878"><path d="M 0 0 L 112.003906 0 L 112.003906 112.003906 L 0 112.003906 Z M 0 0 " clip-rule="nonzero"/></clipPath><clipPath id="e3f57f8358"><path d="M 2.710938 15.449219 L 56.074219 15.449219 L 56.074219 96.554688 L 2.710938 96.554688 Z M 2.710938 15.449219 " clip-rule="nonzero"/></clipPath></defs><g clip-path="url(#0fcbd74878)"><path fill="#ffffff" d="M 0 0 L 112.003906 0 L 112.003906 112.003906 L 0 112.003906 Z M 0 0 " fill-opacity="1" fill-rule="nonzero"/><path fill="#ffffff" d="M 0 0 L 112.003906 0 L 112.003906 112.003906 L 0 112.003906 Z M 0 0 " fill-opacity="1" fill-rule="nonzero"/></g><g clip-path="url(#e3f57f8358)"><path fill="#5e17eb" d="M 2.710938 15.449219 L 56.074219 15.449219 L 56.074219 96.535156 L 2.710938 96.535156 Z M 2.710938 15.449219 " fill-opacity="1" fill-rule="nonzero"/></g><g fill="#ffffff" fill-opacity="1"><g transform="translate(48.725423, 91.540932)"><g><path d="M -42.890625 -1.890625 L -42.890625 -13.734375 C -42.890625 -16.796875 -42.039062 -19.09375 -40.34375 -20.625 C -38.644531 -22.15625 -36.128906 -22.9375 -32.796875 -22.96875 L -12.734375 -23.0625 C -8.503906 -23.09375 -5.320312 -22.359375 -3.1875 -20.859375 C -1.0625 -19.367188 0 -16.890625 0 -13.421875 L 0 -1.890625 Z M -7.59375 -12.03125 C -7.59375 -13.59375 -8.359375 -14.375 -9.890625 -14.375 L -32 -14.375 C -32.96875 -14.375 -33.691406 -14.296875 -34.171875 -14.140625 C -34.648438 -13.992188 -34.972656 -13.722656 -35.140625 -13.328125 C -35.304688 -12.929688 -35.390625 -12.316406 -35.390625 -11.484375 L -35.390625 -10.53125 L -7.59375 -10.53125 Z M -7.59375 -12.03125 "/></g></g></g><g fill="#ffffff" fill-opacity="1"><g transform="translate(48.725423, 66.93532)"><g><path d="M 0 -0.75 L -42.890625 -4.890625 L -42.890625 -19.421875 L 0 -23.515625 L 0 -15.375 L -6.9375 -14.78125 L -6.9375 -9.578125 L 0 -9.078125 Z M -13.78125 -10.234375 L -13.78125 -14.125 L -35.59375 -12.234375 L -35.59375 -11.828125 Z M -13.78125 -10.234375 "/></g></g></g><g fill="#ffffff" fill-opacity="1"><g transform="translate(48.725423, 42.728985)"><g><path d="M 0 -7.09375 L -14.125 -7.09375 L -42.890625 -0.25 L -42.890625 -8.734375 L -28.359375 -11.125 L -42.890625 -13.53125 L -42.890625 -22.015625 L -14.125 -15.171875 L 0 -15.171875 Z M 0 -7.09375 "/></g></g></g><g fill="#5e17eb" fill-opacity="1"><g transform="translate(61.937244, 96.910535)"><g><path d="M 2.796875 -3.828125 C 2.796875 -7.492188 3.367188 -10.878906 4.515625 -13.984375 C 5.671875 -17.097656 7.085938 -19.894531 8.765625 -22.375 C 10.441406 -24.863281 12.648438 -27.785156 15.390625 -31.140625 C 18.179688 -34.628906 20.398438 -37.582031 22.046875 -40 C 23.703125 -42.425781 25.101562 -45.207031 26.25 -48.34375 C 27.394531 -51.488281 27.96875 -54.894531 27.96875 -58.5625 C 27.96875 -60.738281 27.65625 -62.429688 27.03125 -63.640625 C 26.414062 -64.859375 25.300781 -65.46875 23.6875 -65.46875 C 21.007812 -65.46875 19.671875 -63.070312 19.671875 -58.28125 L 19.671875 -48.484375 L 2.796875 -48.484375 L 2.609375 -53.4375 C 2.609375 -59.53125 3.226562 -64.53125 4.46875 -68.4375 C 5.71875 -72.351562 7.894531 -75.335938 11 -77.390625 C 14.113281 -79.441406 18.40625 -80.46875 23.875 -80.46875 C 30.582031 -80.46875 35.769531 -78.585938 39.4375 -74.828125 C 43.113281 -71.066406 44.953125 -65.738281 44.953125 -58.84375 C 44.953125 -54.425781 44.34375 -50.429688 43.125 -46.859375 C 41.914062 -43.285156 40.425781 -40.160156 38.65625 -37.484375 C 36.882812 -34.816406 34.535156 -31.675781 31.609375 -28.0625 C 29.492188 -25.519531 27.738281 -23.253906 26.34375 -21.265625 C 24.945312 -19.273438 23.6875 -17.222656 22.5625 -15.109375 L 44.390625 -15.109375 L 44.390625 0 L 2.796875 0 Z M 2.796875 -3.828125 "/></g></g></g></svg>