<svg xmlns="http://www.w3.org/2000/svg" xmlns:xlink="http://www.w3.org/1999/xlink" width="100" zoomAndPan="magnify" viewBox="0 0 75 37.5" height="50" preserveAspectRatio="xMidYMid meet" version="1.0"><defs><g/></defs><g fill="#4b0082" fill-opacity="1"><g transform="translate(9.396965, 33.304589)"><g><path d="M 1.265625 0 L 1.265625 -29.515625 L 9.4375 -29.515625 C 10.625 -29.515625 11.625 -29.101562 12.4375 -28.28125 C 13.25 -27.46875 13.65625 -26.472656 13.65625 -25.296875 L 13.65625 -4.21875 C 13.65625 -3.03125 13.25 -2.03125 12.4375 -1.21875 C 11.625 -0.40625 10.625 0 9.4375 0 Z M 6.578125 -4.46875 L 7.46875 -4.46875 C 7.71875 -4.46875 7.925781 -4.550781 8.09375 -4.71875 C 8.257812 -4.882812 8.34375 -5.097656 8.34375 -5.359375 L 8.34375 -24.203125 C 8.34375 -24.453125 8.257812 -24.660156 8.09375 -24.828125 C 7.925781 -24.992188 7.71875 -25.078125 7.46875 -25.078125 L 6.578125 -25.078125 Z M 6.578125 -4.46875 "/></g></g></g><g fill="#4b0082" fill-opacity="1"><g transform="translate(23.393747, 33.304589)"><g><path d="M 0.625 0 L 3.75 -29.515625 L 11.09375 -29.515625 L 14.25 0 L 8.9375 0 L 8.59375 -4.390625 L 6.28125 -4.390625 L 5.9375 0 Z M 6.625 -8.859375 L 8.265625 -8.859375 L 7.421875 -19.984375 Z M 6.625 -8.859375 "/></g></g></g><g fill="#4b0082" fill-opacity="1"><g transform="translate(37.348371, 33.304589)"><g><path d="M 4.25 0 L 4.25 -10.703125 L 0.625 -29.46875 L 5.78125 -29.46875 L 7.125 -17.5 L 8.4375 -29.46875 L 13.609375 -29.46875 L 9.984375 -10.703125 L 9.984375 0 Z M 4.25 0 "/></g></g></g><g fill="#4b0082" fill-opacity="1"><g transform="translate(50.670602, 33.304589)"><g><path d="M 1.265625 0 L 1.265625 -9.609375 C 1.265625 -10.785156 1.671875 -11.78125 2.484375 -12.59375 C 3.296875 -13.414062 4.296875 -13.828125 5.484375 -13.828125 L 7.46875 -13.828125 C 7.71875 -13.828125 7.925781 -13.910156 8.09375 -14.078125 C 8.257812 -14.242188 8.34375 -14.457031 8.34375 -14.71875 L 8.34375 -24.15625 C 8.34375 -24.40625 8.257812 -24.613281 8.09375 -24.78125 C 7.925781 -24.957031 7.71875 -25.046875 7.46875 -25.046875 C 7.207031 -25.046875 6.992188 -24.957031 6.828125 -24.78125 C 6.660156 -24.613281 6.578125 -24.40625 6.578125 -24.15625 L 6.578125 -16.234375 L 1.265625 -16.234375 L 1.265625 -25.296875 C 1.265625 -26.472656 1.671875 -27.46875 2.484375 -28.28125 C 3.296875 -29.101562 4.296875 -29.515625 5.484375 -29.515625 L 8.171875 -29.515625 L 8.171875 -29.46875 L 9.4375 -29.46875 C 10.625 -29.46875 11.625 -29.054688 12.4375 -28.234375 C 13.25 -27.421875 13.65625 -26.425781 13.65625 -25.25 L 13.65625 -13.578125 C 13.65625 -12.390625 13.25 -11.390625 12.4375 -10.578125 C 11.625 -9.765625 10.625 -9.359375 9.4375 -9.359375 L 7.46875 -9.359375 C 7.207031 -9.359375 6.992188 -9.273438 6.828125 -9.109375 C 6.660156 -8.941406 6.578125 -8.726562 6.578125 -8.46875 L 6.578125 -4.421875 L 13.65625 -4.421875 L 13.65625 0 Z M 1.265625 0 "/></g></g></g></svg>